<svg width="96" height="96" xmlns="http://www.w3.org/2000/svg" xmlns:xlink="http://www.w3.org/1999/xlink" overflow="hidden"><defs><clipPath id="clip0"><rect x="769" y="366" width="96" height="96"/></clipPath></defs><g clip-path="url(#clip0)" transform="translate(-769 -366)"><path d="M809.2 431.3C807.8 431.3 806.5 431 805.2 430.5 803.1 429.7 801.3 428.2 800 426.3 799.9 426.3 799.7 426.2 799.6 426.2L787.6 449.8 797.7 447.5 802.8 457 815.3 432.6C813.9 432.4 812.5 431.8 811.3 431.1 810.6 431.2 809.9 431.3 809.2 431.3Z"/><path d="M830.1 430C828.7 430.6 827.2 430.9 825.7 430.9 824.9 430.9 824.2 430.8 823.4 430.7 821.9 431.7 820.2 432.4 818.4 432.6L831.6 456.4 836.8 447.9 847 449.6 834.3 426.8C833.2 428.2 831.8 429.3 830.1 430Z"/><path d="M816.7 417.6C807.2 417.6 799.4 409.9 799.4 400.3 799.4 390.7 807.2 383 816.7 383 826.2 383 834 390.7 834 400.3 834 409.9 826.2 417.6 816.7 417.6ZM846.2 400.3C846.2 398.1 845.3 396.1 843.8 394.7 844.6 392.8 844.7 390.6 843.8 388.6 843 386.8 841.6 385.4 839.9 384.7 839.8 382.9 839.1 381.1 837.7 379.7 836.1 378.1 834.1 377.4 832 377.5 831.3 375.6 829.8 374 827.7 373.2 825.9 372.5 823.9 372.5 822.2 373.2 820.8 372 819.1 371.2 817.1 371.2 814.9 371.2 812.9 372.1 811.5 373.6 809.6 372.8 807.4 372.7 805.4 373.6 803.6 374.4 802.2 375.8 801.5 377.5 799.7 377.6 797.9 378.3 796.5 379.7 794.9 381.3 794.2 383.3 794.3 385.4 792.4 386.1 790.8 387.6 790 389.7 789.3 391.5 789.3 393.5 790 395.2 788.8 396.6 788 398.3 788 400.3 788 402.5 788.9 404.5 790.4 405.9 789.6 407.8 789.5 410 790.4 412 791.2 413.8 792.6 415.2 794.3 415.9 794.4 417.7 795.1 419.5 796.5 420.9 798.1 422.5 800.1 423.2 802.2 423.1 802.9 425 804.4 426.6 806.5 427.4 808.3 428.1 810.3 428.1 812 427.4 813.4 428.6 815.1 429.4 817.1 429.4 819.3 429.4 821.3 428.5 822.7 427 824.6 427.8 826.8 427.9 828.8 427 830.6 426.2 832 424.8 832.7 423.1 834.5 423 836.3 422.3 837.7 420.9 839.3 419.3 840 417.3 839.9 415.2 841.8 414.5 843.4 413 844.2 410.9 844.9 409.1 844.9 407.1 844.2 405.4 845.4 404.1 846.2 402.3 846.2 400.3Z"/></g></svg>