<svg width="96" height="96" xmlns="http://www.w3.org/2000/svg" xmlns:xlink="http://www.w3.org/1999/xlink" overflow="hidden"><defs><clipPath id="clip0"><rect x="955" y="521" width="96" height="96"/></clipPath></defs><g clip-path="url(#clip0)" transform="translate(-955 -521)"><path d="M1045.6 557.3 1040.4 555.4 1040.4 544.5 1045.6 542.3 1010.4 529.3 967.6 544.3C963.5 546.3 963.4 551.8 963.4 556.3 963.4 557.8 963.6 559.3 963.9 560.7 960.5 562.9 960.4 568 960.4 572.3 960.4 575.8 961.2 579 963.4 581 962.9 582.7 963.2 584.8 963.2 587.3 963.2 591.8 964.4 595.9 968.4 597.3L996.2 608.8 1045.4 588.4 1040.2 586.5 1040.2 575.5 1045.4 573.3 1037.4 570.3 1037.4 560.7 1045.6 557.3ZM968.8 551.3 996.6 562.2 1036.5 546.1 1036.5 554.7 996.6 571.3 968.8 560.3 968.8 551.3ZM1036.3 585.8 996.4 602.3 968.5 591.3 968.5 583.5 993.4 593.7 1036.4 576.7 1036.3 585.8ZM1033.5 570.8 993.6 587.3 965.8 576.3 965.8 567.3 994.4 578.7 1033.6 562.3 1033.6 570.8Z"/></g></svg>