<svg width="96" height="96" xmlns="http://www.w3.org/2000/svg" xmlns:xlink="http://www.w3.org/1999/xlink" overflow="hidden"><defs><clipPath id="clip0"><rect x="978" y="522" width="96" height="96"/></clipPath></defs><g clip-path="url(#clip0)" transform="translate(-978 -522)"><path d="M1062.5 550C1062.5 553.314 1059.81 556 1056.5 556 1053.19 556 1050.5 553.314 1050.5 550 1050.5 546.686 1053.19 544 1056.5 544 1059.81 544 1062.5 546.686 1062.5 550Z"/><path d="M1068.9 574.1 1065.9 565 1064.9 562.1C1064.8 561.8 1064.7 561.6 1064.5 561.3 1062.9 559.6 1060.8 558.5 1058.4 558.1 1057.7 558 1057.1 558 1056.5 558 1055.9 558 1055.3 558 1054.8 558.1 1052.4 558.5 1050.3 559.6 1048.7 561.3 1048.5 561.5 1048.3 561.8 1048.3 562.1L1047.3 565 1046.6 567.1 1045.8 565 1044.8 562.1C1044.7 561.8 1044.6 561.6 1044.4 561.3 1042.8 559.6 1040.7 558.5 1038.3 558.1 1037.7 558 1037.1 558 1036.5 558 1035.9 558 1035.3 558 1034.8 558.1 1032.4 558.5 1030.3 559.6 1028.7 561.3 1028.5 561.5 1028.3 561.8 1028.3 562.1L1027.3 565 1026.6 567.1 1025.8 565 1024.8 562.1C1024.7 561.8 1024.6 561.6 1024.4 561.3 1022.8 559.6 1020.7 558.5 1018.3 558.1 1017.7 558 1017.1 558 1016.5 558 1015.9 558 1015.3 558 1014.8 558.1 1012.4 558.5 1010.3 559.6 1008.7 561.3 1008.5 561.5 1008.3 561.8 1008.3 562.1L1007.3 565 1006.6 567.1 1005.8 565 1004.8 562.1C1004.7 561.8 1004.6 561.6 1004.4 561.3 1002.8 559.6 1000.7 558.5 998.3 558.1 997.6 558 997.1 558 996.5 558 995.9 558 995.3 558 994.8 558.1 992.4 558.5 990.3 559.6 988.7 561.3 988.5 561.5 988.3 561.8 988.3 562.1L987.3 565 984.3 574.1C983.9 575.3 984.4 576.7 985.6 577.3 986 577.5 986.3 577.5 986.7 577.5 987.7 577.5 988.7 576.8 989.1 575.8L990.7 570.9 990.7 575.9 987.7 583.9 990.7 583.9 990.7 592.9 995.7 592.9 995.7 583.9 997.7 583.9 997.7 592.9 1002.7 592.9 1002.7 583.9 1005.7 583.9 1002.7 575.7 1002.7 570.8 1004.3 575.7C1004.6 576.7 1005.6 577.4 1006.7 577.4 1006.7 577.4 1006.7 577.4 1006.7 577.4 1006.7 577.4 1006.7 577.4 1006.7 577.4L1006.7 577.4 1006.7 577.4C1007.7 577.4 1008.7 576.7 1009.1 575.7L1010.7 570.8 1010.7 593 1015.7 593 1015.7 578 1017.7 578 1017.7 593 1022.7 593 1022.7 570.9 1024.3 575.8C1024.7 576.9 1025.6 577.5 1026.7 577.5L1026.7 577.5C1026.7 577.5 1026.7 577.5 1026.7 577.5 1027.7 577.5 1028.7 576.8 1029.1 575.8L1030.7 570.9 1030.7 575.8 1027.7 584 1030.7 584 1030.7 593 1035.7 593 1035.7 584 1037.7 584 1037.7 593 1042.7 593 1042.7 584 1045.7 584 1042.7 576 1042.7 571 1044.3 575.9C1044.6 576.9 1045.6 577.6 1046.7 577.6 1046.7 577.6 1046.7 577.6 1046.7 577.6 1046.7 577.6 1046.7 577.6 1046.7 577.6 1046.7 577.6 1046.7 577.6 1046.7 577.6 1046.7 577.6 1046.7 577.6 1046.7 577.6 1047.7 577.6 1048.7 576.9 1049.1 575.9L1050.7 571 1050.7 593 1055.7 593 1055.7 578 1057.7 578 1057.7 593 1062.7 593 1062.7 570.9 1064.3 575.8C1064.6 576.8 1065.6 577.5 1066.7 577.5 1067.1 577.5 1067.4 577.4 1067.8 577.3 1068.8 576.7 1069.3 575.3 1068.9 574.1Z"/><path d="M1002.5 550C1002.5 553.314 999.814 556 996.5 556 993.186 556 990.5 553.314 990.5 550 990.5 546.686 993.186 544 996.5 544 999.814 544 1002.5 546.686 1002.5 550Z"/><path d="M1042.5 550C1042.5 553.314 1039.81 556 1036.5 556 1033.19 556 1030.5 553.314 1030.5 550 1030.5 546.686 1033.19 544 1036.5 544 1039.81 544 1042.5 546.686 1042.5 550Z"/><path d="M1022.5 550C1022.5 553.314 1019.81 556 1016.5 556 1013.19 556 1010.5 553.314 1010.5 550 1010.5 546.686 1013.19 544 1016.5 544 1019.81 544 1022.5 546.686 1022.5 550Z"/></g></svg>