<svg width="96" height="96" xmlns="http://www.w3.org/2000/svg" xmlns:xlink="http://www.w3.org/1999/xlink" overflow="hidden"><defs><clipPath id="clip0"><rect x="1078" y="393" width="96" height="96"/></clipPath></defs><g clip-path="url(#clip0)" transform="translate(-1078 -393)"><path d="M1108.5 455 1112.9 479.7C1113.2 481.6 1114.9 483 1116.8 483L1138.1 483C1140 483 1141.7 481.6 1142 479.7L1146.5 455 1108.5 455Z"/><path d="M1109 422C1109 423.657 1107.66 425 1106 425 1104.34 425 1103 423.657 1103 422 1103 420.343 1104.34 419 1106 419 1107.66 419 1109 420.343 1109 422Z"/><path d="M1146.5 443 1131.7 443C1132.5 437.8 1135.5 432.2 1139.9 427.4 1140.6 426.6 1140.6 425.3 1139.8 424.6 1139 423.9 1137.7 423.9 1137 424.7 1134.4 427.5 1128.8 434.5 1127.7 443.1L1121 443.1C1120.2 439.9 1118.9 438 1115 433.7 1114.3 432.9 1113 432.8 1112.2 433.6 1111.4 434.3 1111.3 435.6 1112.1 436.4 1115.1 439.7 1116.3 441.2 1116.9 443L1108.6 443C1106.4 443 1104.6 444.8 1104.6 447L1104.6 451 1150.6 451 1150.6 447C1150.5 444.8 1148.7 443 1146.5 443Z"/><path d="M1110 411C1110 413.2 1108.2 417 1106 417 1103.8 417 1102 413.2 1102 411 1102 408.8 1103.8 407 1106 407 1108.2 407 1110 408.8 1110 411Z"/><path d="M1102 433C1102 430.8 1103.8 427 1106 427 1108.2 427 1110 430.8 1110 433 1110 435.2 1108.2 437 1106 437 1103.8 437 1102 435.2 1102 433Z"/><path d="M1098.5 413C1100.4 414.1 1102.8 417.6 1101.7 419.5 1100.6 421.4 1096.4 421.1 1094.5 420 1092.6 418.9 1091.9 416.4 1093 414.5 1094.1 412.6 1096.6 411.9 1098.5 413Z"/><path d="M1113.5 431C1111.6 429.9 1109.2 426.4 1110.3 424.5 1111.4 422.6 1115.6 422.9 1117.5 424 1119.4 425.1 1120.1 427.6 1119 429.5 1117.9 431.4 1115.4 432.1 1113.5 431Z"/><path d="M1094.5 424C1096.4 422.9 1100.6 422.6 1101.7 424.5 1102.8 426.4 1100.4 429.9 1098.5 431 1096.6 432.1 1094.1 431.4 1093 429.5 1091.9 427.6 1092.6 425.1 1094.5 424Z"/><path d="M1117.5 420C1115.6 421.1 1111.4 421.4 1110.3 419.5 1109.2 417.6 1111.6 414.1 1113.5 413 1115.4 411.9 1117.9 412.6 1119 414.5 1120.1 416.4 1119.4 418.9 1117.5 420Z"/><path d="M1149 414C1149 415.657 1147.66 417 1146 417 1144.34 417 1143 415.657 1143 414 1143 412.343 1144.34 411 1146 411 1147.66 411 1149 412.343 1149 414Z"/><path d="M1150 403C1150 405.2 1148.2 409 1146 409 1143.8 409 1142 405.2 1142 403 1142 400.8 1143.8 399 1146 399 1148.2 399 1150 400.8 1150 403Z"/><path d="M1142 425C1142 422.8 1143.8 419 1146 419 1148.2 419 1150 422.8 1150 425 1150 427.2 1148.2 429 1146 429 1143.8 429 1142 427.2 1142 425Z"/><path d="M1138.5 405C1140.4 406.1 1142.8 409.6 1141.7 411.5 1140.6 413.4 1136.4 413.1 1134.5 412 1132.6 410.9 1131.9 408.4 1133 406.5 1134.1 404.6 1136.6 403.9 1138.5 405Z"/><path d="M1153.5 423C1151.6 421.9 1149.2 418.4 1150.3 416.5 1151.4 414.6 1155.6 414.9 1157.5 416 1159.4 417.1 1160.1 419.6 1159 421.5 1157.9 423.4 1155.4 424.1 1153.5 423Z"/><path d="M1134.5 416C1136.4 414.9 1140.6 414.6 1141.7 416.5 1142.8 418.4 1140.4 421.9 1138.5 423 1136.6 424.1 1134.1 423.4 1133 421.5 1131.9 419.6 1132.6 417.1 1134.5 416Z"/><path d="M1157.5 412C1155.6 413.1 1151.4 413.4 1150.3 411.5 1149.2 409.6 1151.6 406.1 1153.5 405 1155.4 403.9 1157.9 404.6 1159 406.5 1160.1 408.4 1159.4 410.9 1157.5 412Z"/></g></svg>