<svg width="96" height="96" xmlns="http://www.w3.org/2000/svg" xmlns:xlink="http://www.w3.org/1999/xlink" overflow="hidden"><defs><clipPath id="clip0"><rect x="728" y="541" width="96" height="96"/></clipPath></defs><g clip-path="url(#clip0)" transform="translate(-728 -541)"><path d="M815.8 560 751.8 560C749.6 560 747.8 561.8 747.8 564L747.8 578.5C748.9 578.2 750.2 578 751.4 578 752.2 578 753 578.1 753.8 578.2L753.8 566 813.8 566 813.8 604 779.9 604 774.2 610 815.8 610C818 610 819.8 608.2 819.8 606L819.8 564C819.8 561.8 818 560 815.8 560"/><path d="M751.5 599C756.2 599 760 595.2 760 590.5 760 585.8 756.2 582 751.5 582 746.8 582 743 585.8 743 590.5 742.9 595.2 746.8 599 751.5 599"/><path d="M784.2 589.1C782.9 587.1 780.3 586.6 778.3 587.8 777.9 588 777.7 588.4 777.5 588.6L762.9 603.8C761.5 603.1 760 602.5 758.5 602 756.2 601.6 753.8 601.1 751.5 601.1 749.2 601.1 746.8 601.5 744.5 602.2 741.1 603.1 738.1 604.8 735.6 606.9 735 607.5 734.5 608.4 734.3 609.2L732.2 618 762.1 618 762.1 617.9 770.6 608 783.7 594.2C784.9 593 785.3 590.7 784.2 589.1"/></g></svg>