<?xml version="1.0" encoding="iso-8859-1"?>
<!-- Uploaded to: SVG Repo, www.svgrepo.com, Generator: SVG Repo Mixer Tools -->
<svg fill="#000000" height="800px" width="800px" version="1.1" id="Capa_1" xmlns="http://www.w3.org/2000/svg" xmlns:xlink="http://www.w3.org/1999/xlink" 
	 viewBox="0 0 298.083 298.083" xml:space="preserve">
<g>
	<path d="M290.083,193.411c-4.418,0-8,3.625-8,8.043c0,4.768-3.624,8.543-8.25,8.543h-36.48l-16-16h17.806
		c14.548,0,26.341-12.07,26.341-26.619c0-7.275-2.948-13.953-7.717-18.719c-3.993-3.992-46.104-24.97-59.667-31.671l-24.273-36.222
		c-4.21-6.283-11.115-9.681-18.149-9.681c-4.178,0-8.401,1.195-12.132,3.695c-10.013,6.711-12.689,20.268-5.978,30.281
		l20.715,30.948l-23.595,13.986h-17.231c0.865-2,1.339-4.85,1.339-7.5c0-12.053-9.77-21.5-21.825-21.5H37.302
		c-12.054,0-21.825,9.404-21.825,21.457c0,2.887,0.565,5.6,1.584,8.094c-9.594,2.334-16.727,11.077-16.727,21.374
		c0,8.346,4.518,15.671,11.399,19.396L0,203.251v3.238c0,11.262,9.417,20.508,20.583,20.508h90.5c5.626,0,10.934-2.543,15.351-7.275
		c1.438-1.539,15.671-15.998,24.887-25.354c0.124-0.127,0.234-0.371,0.349-0.371h47.056l16,16h-63.392c-4.418,0-8,3.582-8,8
		s3.582,8,8,8h122.5c13.371,0,24.25-11.033,24.25-24.543C298.083,197.036,294.501,193.411,290.083,193.411z M114.738,208.847
		c-0.75,0.803-2.222,2.15-3.655,2.15h-90.5c-1.434,0-2.729-0.783-3.503-1.953l14.577-15.047h97.602
		C122.893,199.997,115.883,207.62,114.738,208.847z"/>
</g>
</svg>